<?xml version="1.0" encoding="UTF-8"?>
<svg id="Layer_2" data-name="Layer 2" xmlns="http://www.w3.org/2000/svg" viewBox="0 0 166.64 98.27">
  <defs>
    <style>
      .cls-1 {
        letter-spacing: -.09em;
      }

      .cls-2, .cls-3, .cls-4, .cls-5, .cls-6, .cls-7, .cls-8, .cls-9, .cls-10, .cls-11 {
        stroke-miterlimit: 10;
      }

      .cls-2, .cls-4, .cls-11 {
        stroke: #662d91;
      }

      .cls-2, .cls-5, .cls-8, .cls-9, .cls-11 {
        fill: none;
      }

      .cls-2, .cls-8 {
        stroke-width: 2px;
      }

      .cls-3 {
        stroke-width: .75px;
      }

      .cls-3, .cls-6, .cls-7 {
        fill: #2b3990;
      }

      .cls-3, .cls-7, .cls-10 {
        stroke: #fff;
      }

      .cls-12 {
        letter-spacing: .01em;
      }

      .cls-4, .cls-5, .cls-6, .cls-7, .cls-10 {
        stroke-width: .25px;
      }

      .cls-4, .cls-10 {
        fill: #662d91;
      }

      .cls-13 {
        fill: #fff;
      }

      .cls-14 {
        letter-spacing: 0em;
      }

      .cls-15 {
        letter-spacing: 0em;
      }

      .cls-5 {
        stroke: #231f20;
      }

      .cls-6 {
        stroke: #2b3990;
      }

      .cls-7, .cls-10 {
        font-family: MinionVariableConcept-Roman, 'Minion Variable Concept';
        font-size: 28px;
        font-variation-settings: 'wght' 400, 'opsz' 11;
      }

      .cls-16 {
        letter-spacing: -.03em;
      }

      .cls-8, .cls-9 {
        stroke: #2e3192;
      }

      .cls-17 {
        letter-spacing: -.02em;
      }
    </style>
  </defs>
  <g id="Layer_1-2" data-name="Layer 1">
    <g>
      <path class="cls-2" d="M94.05,49.83c.46-.57.75-1.22.83-1.92,0-.07.01-.13.01-.2h0c0-.27-.07-.52-.2-.74,0-.03-.02-.05-.04-.08,0,0-.01-.02-.02-.03-.08-.17-.21-.37-.49-.56-.04-.02-.69-.44-1.36-.38-.04,0-.08,0-.12.02-.03,0-.06,0-.09,0-.24.03-.47.1-.67.2-.02,0-.03.01-.04.02-.45.21-.86.57-.97,1.17-.02.05-.02.09-.03.13-.02.08-.02.16-.02.24s0,.16-.02.23c0,.05-.01.09-.03.13-.12.5-.48.92-.96,1.17,0,0-.01,0-.01,0-.24.11-.49.18-.71.22-.03,0-.06,0-.09,0-.07,0-.13,0-.21,0-.78,0-1.45-.39-1.79-.96-.02-.03-.03-.05-.04-.08-.12-.23-.19-.47-.19-.74h0c0-.08,0-.14.01-.21.07-.7.37-1.35.83-1.92.38-.47.88-.88,1.47-1.21.34-.19.72-.36,1.12-.49.17-.06.34-.11.52-.16.16-.04.54-.13,1.06-.19.43-.05,2.05-.22,3.73.36,1.52.52,2.19,1.34,2.46,1.69.72.92.7,1.75.68,2.18,0,0-.08,1.59-1.62,3-.55.5-1.24,1.06-1.24,1.06-.15.11-.34.25-1.12.79-1.04.71-1.21.81-1.38.93-.54.39-1.25,1.04-1.3,2.22,0,.08,0,1.85,0,1.85l.02,14.69"/>
      <path class="cls-5" d="M89.84,49.26c-.22.11-.45.18-.71.22.22-.04.47-.1.71-.22Z"/>
      <path class="cls-5" d="M90.87,47.48c-.01.08-.02.15-.02.23s0,.16-.02.24c.01-.08.02-.15.02-.23s0-.16.02-.24Z"/>
      <path class="cls-5" d="M92.58,45.96c-.21.04-.44.1-.67.2.2-.1.43-.17.67-.2Z"/>
      <path class="cls-8" d="M87.66,45.6c-.46.57-.76,1.22-.83,1.92,0,.07-.01.13-.01.2h0c0,.27.07.52.19.74.01.02.02.05.04.08.08.18.21.4.51.59.04.02.69.43,1.36.38.04,0,.08,0,.12-.02.03,0,.06,0,.09,0,.26-.03.49-.1.71-.22,0,0,0,0,.01,0,.44-.21.85-.57.96-1.17.02-.04.02-.08.03-.13.02-.08.02-.16.02-.24s0-.16.02-.23c0-.04.01-.08.03-.13.12-.5.48-.92.97-1.17.01,0,.03-.01.04-.02.23-.1.46-.16.67-.2.03,0,.06,0,.09,0,.07,0,.13,0,.21,0,.76,0,1.42.37,1.77.92,0,0,.02.02.02.03.02.02.03.05.04.08.13.22.2.47.2.74h0c0,.08,0,.14-.01.21-.08.7-.37,1.35-.83,1.92-.34.42-.78.79-1.29,1.1-.06.04-.12.07-.18.11-.09.05-.17.09-.26.14-.18.09-.36.17-.54.24-.05.02-.1.04-.14.05-.06.02-.12.04-.18.06-.04.01-.11.03-.2.06-.07.02-.15.04-.24.06-.13.03-.27.06-.41.1-.13.03-.27.06-.39.08-.12.02-.23.04-.33.05-.43.05-2.05.22-3.73-.35-1.52-.52-2.19-1.34-2.46-1.69-.72-.91-.7-1.74-.68-2.18,0,0,.08-1.59,1.62-3,.26-.23.91-.78,1.24-1.06.43-.36.65-.54.99-.8.42-.32.56-.41,1-.76.41-.32.61-.48.77-.65.35-.38.51-.7.59-.87.11-.25.16-.46.19-.63l.02-16.41"/>
      <path class="cls-13" d="M91.26,42.93c-.05.04-.1.08-.15.11"/>
      <path class="cls-5" d="M90.41,43.77s-.01,0-.02.01"/>
      <path class="cls-4" d="M87.63,19.52c.31-.17.84-.49,1.26-1.04.51-.66.61-1.3.63-1.61,0,.28.04.89.5,1.54.44.61,1.02.95,1.32,1.1-.31.15-.8.44-1.21.93-.59.72-.64,1.44-.64,1.73-.02-.32-.11-.99-.67-1.68-.4-.5-.88-.8-1.19-.97Z"/>
      <path class="cls-6" d="M90.03,75.91c.31-.17.84-.49,1.26-1.04.51-.66.61-1.3.63-1.61,0,.28.04.89.5,1.54.44.61,1.02.95,1.32,1.1-.31.15-.8.44-1.21.93-.59.72-.64,1.44-.64,1.73-.02-.32-.11-.99-.67-1.68-.4-.5-.88-.8-1.19-.97Z"/>
      <polyline class="cls-11" points="91.63 43.57 90.87 43.71 90.25 43.89 89.47 44.19 89.13 44.39"/>
      <polyline class="cls-9" points="92.58 51.04 91.9 51.38 91.26 51.6 90.6 51.76 90.21 51.84"/>
      <text class="cls-10" transform="translate(30.59 40.49)"><tspan class="cls-16" x="0" y="0">M</tspan><tspan class="cls-12" x="24.58" y="0">y</tspan><tspan class="cls-14" x="37.55" y="0">s</tspan><tspan x="47.74" y="0">t</tspan></text>
      <text class="cls-10" transform="translate(92.76 39.73)"><tspan x="0" y="0">c</tspan></text>
      <text class="cls-7" transform="translate(72.5 72.31)"><tspan x="0" y="0">B</tspan></text>
      <text class="cls-7" transform="translate(95.21 72.23)"><tspan class="cls-17" x="0" y="0">te</tspan><tspan class="cls-1" x="19.66" y="0">’</tspan><tspan class="cls-15" x="23.1" y="0">s</tspan></text>
      <rect class="cls-3" x="27.61" y="48.26" width="51.65" height="1.79"/>
      <rect class="cls-3" x="103.26" y="48.26" width="34.59" height="1.75"/>
      <ellipse class="cls-9" cx="83.32" cy="49.13" rx="77.56" ry="43.64"/>
      <ellipse class="cls-2" cx="83.32" cy="49.13" rx="82.32" ry="48.13"/>
    </g>
  </g>
</svg>