<?xml version="1.0" encoding="UTF-8"?>
<svg id="Layer_2" data-name="Layer 2" xmlns="http://www.w3.org/2000/svg" xmlns:xlink="http://www.w3.org/1999/xlink" viewBox="0 0 378 342">
  <defs>
    <style>
      .cls-1 {
        stroke-width: 2px;
      }

      .cls-1, .cls-2, .cls-3, .cls-4, .cls-5, .cls-6, .cls-7, .cls-8 {
        fill: none;
      }

      .cls-1, .cls-3, .cls-4, .cls-5, .cls-6, .cls-7, .cls-8 {
        stroke-miterlimit: 10;
      }

      .cls-1, .cls-7, .cls-8 {
        stroke: #662d91;
      }

      .cls-9 {
        clip-path: url(#clippath-4);
      }

      .cls-10 {
        fill: #fff;
      }

      .cls-3 {
        stroke: #fff;
        stroke-width: .75px;
      }

      .cls-11 {
        clip-path: url(#clippath-1);
      }

      .cls-12 {
        clip-path: url(#clippath-5);
      }

      .cls-4 {
        stroke: #231f20;
        stroke-width: .25px;
      }

      .cls-13 {
        clip-path: url(#clippath-3);
      }

      .cls-14 {
        fill: #2b3990;
      }

      .cls-15 {
        fill: #662d91;
      }

      .cls-5 {
        stroke: #2b3990;
      }

      .cls-5, .cls-7 {
        stroke-width: .5px;
      }

      .cls-6 {
        stroke: #2e3192;
      }

      .cls-16 {
        clip-path: url(#clippath-2);
      }

      .cls-17 {
        clip-path: url(#clippath);
      }
    </style>
    <clipPath id="clippath">
      <rect class="cls-2" width="378" height="342"/>
    </clipPath>
    <clipPath id="clippath-1">
      <rect class="cls-2" width="378" height="342"/>
    </clipPath>
    <clipPath id="clippath-2">
      <rect class="cls-2" width="378" height="342"/>
    </clipPath>
    <clipPath id="clippath-3">
      <rect class="cls-2" width="378" height="342"/>
    </clipPath>
    <clipPath id="clippath-4">
      <rect class="cls-2" width="378" height="342"/>
    </clipPath>
    <clipPath id="clippath-5">
      <rect class="cls-2" width="378" height="342"/>
    </clipPath>
  </defs>
  <g id="Layer_2-2" data-name="Layer 2">
    <g class="cls-17">
      <g class="cls-11">
        <path class="cls-8" d="M209.76,168.16c.75-.83,1.21-1.78,1.34-2.8,0-.09.02-.19.02-.29h0c0-.4-.11-.76-.32-1.09,0-.04-.03-.08-.06-.11,0-.01-.02-.03-.03-.05-.13-.25-.34-.55-.8-.81-.06-.03-1.12-.64-2.19-.55-.07,0-.12.01-.2.02-.05,0-.09,0-.14.01-.39.04-.76.14-1.08.29-.02,0-.05.02-.07.03-.72.3-1.39.83-1.57,1.71-.02.07-.03.13-.04.19-.02.11-.03.23-.03.35s0,.23-.03.34c0,.07-.02.13-.04.19-.19.72-.77,1.35-1.55,1.7,0,0-.02.01-.02.01-.39.16-.79.26-1.15.31-.05,0-.1.01-.14.01-.11.01-.22.01-.33.01-1.25,0-2.34-.57-2.89-1.4-.02-.04-.04-.08-.06-.11-.2-.33-.3-.69-.31-1.07h0c0-.11,0-.21.02-.3.12-1.02.59-1.97,1.34-2.8.62-.69,1.43-1.29,2.37-1.77.56-.28,1.16-.53,1.8-.72.27-.09.56-.16.85-.23.26-.06.87-.2,1.71-.28.69-.07,3.31-.31,6.02.52,2.45.75,3.53,1.95,3.98,2.47,1.16,1.34,1.13,2.55,1.1,3.19,0,0-.12,2.33-2.62,4.39-.89.74-2.01,1.55-2.01,1.55-.24.16-.54.36-1.81,1.15-1.68,1.04-1.95,1.18-2.22,1.36-.87.57-2.01,1.52-2.1,3.24,0,.11,0,2.7,0,2.7l.02,1.29"/>
        <path class="cls-4" d="M202.96,167.32c-.35.16-.73.27-1.15.32.36-.06.76-.15,1.15-.32Z"/>
        <path class="cls-4" d="M204.63,164.72c-.02.11-.02.22-.02.34s0,.23-.03.35c.02-.11.02-.22.02-.34s0-.24.03-.35Z"/>
        <path class="cls-4" d="M207.39,162.5c-.33.05-.71.14-1.08.29.32-.14.69-.24,1.08-.29Z"/>
        <path class="cls-6" d="M199.44,161.97c-.75.83-1.22,1.78-1.34,2.8,0,.09-.02.19-.02.29h0c0,.4.11.76.31,1.09.02.03.03.07.06.11.13.26.33.58.82.86.06.03,1.12.63,2.2.55.07,0,.12-.01.2-.02.04,0,.09,0,.14-.01.42-.05.8-.15,1.15-.31,0,0,0,0,.02-.01.72-.3,1.37-.83,1.55-1.7.02-.06.03-.12.04-.19.02-.11.03-.23.03-.35s0-.23.03-.34c0-.06.02-.12.04-.19.19-.73.77-1.35,1.57-1.71.02,0,.04-.02.07-.03.37-.14.75-.23,1.08-.29.05,0,.09-.01.14-.01.11-.01.22-.01.33-.01,1.23,0,2.3.54,2.86,1.35,0,.01.03.03.03.05.02.03.05.07.06.11.21.33.32.69.32,1.07h0c0,.11,0,.21-.02.3-.12,1.02-.59,1.97-1.34,2.8-.56.61-1.26,1.16-2.08,1.61-.1.05-.2.11-.3.16-.14.07-.28.14-.42.2-.28.13-.58.25-.88.36-.08.03-.16.05-.23.08-.09.03-.19.06-.28.09-.06.02-.17.05-.32.08-.11.03-.25.06-.39.09-.2.05-.43.09-.67.14-.21.04-.43.08-.64.11-.19.03-.37.06-.53.07-.69.07-3.31.32-6.02-.52-2.45-.76-3.53-1.95-3.98-2.47-1.16-1.34-1.13-2.55-1.1-3.19,0,0,.12-2.33,2.62-4.39.42-.34,1.47-1.14,2.01-1.55.7-.52,1.05-.79,1.59-1.16.67-.47.9-.6,1.61-1.11.66-.47.99-.71,1.25-.95.56-.55.83-1.03.95-1.27.18-.36.26-.67.31-.92l.04-4.05"/>
        <path class="cls-10" d="M205.25,158.07c-.08.06-.16.11-.24.17"/>
        <path class="cls-4" d="M203.88,159.29s-.02.01-.03.02"/>
        <path class="cls-15" d="M199.39,145.1c.51-.24,1.35-.72,2.04-1.51.83-.97.99-1.89,1.02-2.35,0,.41.06,1.3.81,2.25.7.9,1.65,1.39,2.13,1.6-.49.22-1.29.64-1.95,1.36-.96,1.05-1.04,2.1-1.04,2.53-.03-.47-.18-1.45-1.07-2.46-.65-.73-1.43-1.18-1.93-1.42"/>
        <path class="cls-7" d="M199.39,145.1c.51-.24,1.35-.72,2.04-1.51.83-.97.99-1.89,1.02-2.35,0,.41.06,1.3.81,2.25.7.9,1.65,1.39,2.13,1.6-.49.22-1.29.64-1.95,1.36-.96,1.05-1.04,2.1-1.04,2.53-.03-.47-.18-1.45-1.07-2.46-.65-.73-1.43-1.18-1.93-1.42Z"/>
        <path class="cls-14" d="M203.31,185.33c.51-.24,1.35-.72,2.04-1.51.83-.97.99-1.89,1.02-2.35,0,.41.06,1.3.81,2.25.7.9,1.65,1.39,2.13,1.6-.49.22-1.29.64-1.95,1.36-.96,1.05-1.04,2.1-1.04,2.53-.03-.47-.18-1.45-1.07-2.46-.65-.73-1.43-1.18-1.93-1.42"/>
        <path class="cls-5" d="M203.31,185.33c.51-.24,1.35-.72,2.04-1.51.83-.97.99-1.89,1.02-2.35,0,.41.06,1.3.81,2.25.7.9,1.65,1.39,2.13,1.6-.49.22-1.29.64-1.95,1.36-.96,1.05-1.04,2.1-1.04,2.53-.03-.47-.18-1.45-1.07-2.46-.65-.73-1.43-1.18-1.93-1.42Z"/>
        <polyline class="cls-8" points="205.85 159.01 204.63 159.21 203.62 159.48 202.37 159.92 201.81 160.2"/>
        <polyline class="cls-6" points="207.39 169.93 206.29 170.41 205.25 170.74 204.19 170.97 203.55 171.09"/>
      </g>
      <path class="cls-15" d="M134.49,154.5v-1.15c3.71-.33,3.84-.57,3.8-4.95l.05-16.7c-3.71,7.49-9.68,19.19-11.26,22.79h-1.18c-1.54-3.72-6.65-14.98-10.09-22.38-.77,14.32-.81,17.56-.81,18.33.05,2.29,1.18,2.62,4.25,2.91v1.15h-10.72v-1.15c2.62-.25,3.71-.74,4.07-2.95.27-1.8.32-3.27,1.49-18.21.18-2.13-.27-2.82-4.25-3.15v-1.15h7.87l10,20.75,10.72-20.75h7.92v1.15c-3.89.41-4.39.78-4.3,3.64l.18,15.71c.18,4.38.32,4.58,4.3,4.95v1.15h-12.03ZM168.27,137.64c-2.35.33-2.85.65-3.98,2.99-1.13,2.29-2.35,5.07-5.47,12.2-2.94,6.55-3.75,9.08-4.48,11.21-.27.86-.77,1.06-1.36,1.06-1.45,0-2.76-.94-2.76-1.96,0-.53.32-.9,1-1.43,1.45-1.02,2.49-2.01,3.03-3.03.95-1.72,1.63-3.15,1.85-3.68.18-.61.18-.98-.09-1.68-1.76-4.67-4.21-9.7-5.56-12.65-1-2.25-1.4-2.74-3.89-3.03v-1.1h9.14v1.1c-2.08.29-2.31.7-1.72,2.21l4.39,10.07c1.27-2.82,3.08-7.37,4.03-9.94.54-1.56.23-2.01-2.4-2.33v-1.1h8.28v1.1ZM181.21,141.4c-.81-2.37-1.99-4.01-4.75-4.01-1.58,0-2.8,1.02-2.8,2.66,0,1.76,1.31,2.58,3.84,3.64,3.89,1.68,5.83,2.91,5.83,5.61,0,3.76-3.8,5.69-7.37,5.69-2.35,0-4.43-.65-5.38-1.15-.23-1.19-.63-3.44-.81-4.79l1.31-.2c.81,2.62,2.4,4.75,5.56,4.75,1.72,0,3.17-1.06,3.17-2.78,0-1.84-1.22-2.78-3.62-3.85-3.17-1.39-5.74-2.7-5.74-5.65s2.8-5.28,7.06-5.28c1.9,0,3.44.41,4.34.53.14.98.45,3.56.68,4.54l-1.31.29ZM194.73,154.46c-.77.37-1.49.53-1.94.53-2.89,0-4.43-1.6-4.43-4.87v-11.91h-3.12l-.18-.49,1.22-1.19h2.08v-3.44c.86-.82,2.17-1.88,3.03-2.7l.68.08c-.09,1.72-.14,4.09-.14,6.06h5.16c.41.41.27,1.31-.27,1.68h-4.88v10.48c0,3.31,1.45,3.93,2.62,3.93,1.09,0,2.13-.37,2.76-.65l.41,1.06-2.99,1.43Z"/>
      <g class="cls-16">
        <path class="cls-3" d="M146.52,154.5v-1.15c-3.98-.37-4.12-.57-4.3-4.95l-.18-15.71c-.09-2.86.41-3.23,4.3-3.64v-1.15h-7.92l-10.72,20.75-10-20.75h-7.87v1.15c3.98.33,4.43,1.02,4.25,3.15-1.18,14.94-1.22,16.41-1.49,18.21-.36,2.21-1.45,2.7-4.07,2.95v1.15h10.72v-1.15c-3.08-.29-4.2-.61-4.25-2.91,0-.78.05-4.01.81-18.33,3.44,7.41,8.55,18.66,10.09,22.38h1.18c1.58-3.6,7.56-15.31,11.26-22.79l-.05,16.7c.05,4.38-.09,4.62-3.8,4.95v1.15h12.03Z"/>
        <path class="cls-3" d="M168.27,136.53h-8.28v1.1c2.62.33,2.94.78,2.4,2.33-.95,2.58-2.76,7.12-4.03,9.94l-4.39-10.07c-.59-1.51-.36-1.92,1.72-2.21v-1.1h-9.14v1.1c2.49.29,2.89.78,3.89,3.03,1.36,2.95,3.8,7.98,5.56,12.65.27.7.27,1.06.09,1.68-.23.53-.91,1.96-1.86,3.68-.54,1.02-1.58,2.01-3.03,3.03-.68.53-1,.9-1,1.43,0,1.02,1.31,1.96,2.76,1.96.59,0,1.09-.2,1.36-1.06.72-2.13,1.54-4.67,4.48-11.21,3.12-7.12,4.34-9.9,5.47-12.2,1.13-2.33,1.63-2.66,3.98-2.99v-1.1Z"/>
        <path class="cls-3" d="M182.52,141.12c-.23-.98-.54-3.56-.68-4.54-.9-.12-2.44-.53-4.34-.53-4.25,0-7.06,2.29-7.06,5.28s2.58,4.26,5.74,5.65c2.4,1.06,3.62,2.01,3.62,3.85,0,1.72-1.45,2.78-3.17,2.78-3.17,0-4.75-2.13-5.56-4.75l-1.31.2c.18,1.35.59,3.6.81,4.79.95.49,3.03,1.15,5.38,1.15,3.57,0,7.37-1.92,7.37-5.69,0-2.7-1.94-3.93-5.83-5.61-2.53-1.06-3.84-1.88-3.84-3.64,0-1.64,1.22-2.66,2.8-2.66,2.76,0,3.94,1.64,4.75,4.01l1.31-.29Z"/>
        <path class="cls-3" d="M197.72,153.03l-.41-1.06c-.63.29-1.67.65-2.76.65-1.18,0-2.62-.61-2.62-3.93v-10.48h4.88c.54-.37.68-1.27.27-1.68h-5.16c0-1.96.05-4.34.14-6.06l-.68-.08c-.86.82-2.17,1.88-3.03,2.7v3.44h-2.08l-1.22,1.19.18.49h3.12v11.91c0,3.27,1.54,4.87,4.43,4.87.45,0,1.18-.16,1.94-.53l2.99-1.43Z"/>
      </g>
      <path class="cls-15" d="M226.27,149.71c-1.99,2.37-5.02,4.17-7.73,4.17-5.74,0-9.14-4.22-9.14-8.59,0-3.23,1.54-5.93,4.57-8.02,2.4-1.68,5.11-2.33,6.88-2.33,2.04,0,3.53.57,4.21,1.1.63.45.72.74.72,1.19,0,.98-1.13,1.84-1.63,1.84-.23,0-.41-.08-.86-.41-1.4-1.15-2.94-1.72-4.57-1.72-2.99,0-5.61,2.29-5.61,6.55-.05,5.69,4.25,7.57,6.88,7.57,1.9,0,3.44-.45,5.52-2.25l.77.9Z"/>
      <g class="cls-13">
        <path class="cls-3" d="M225.51,148.81c-2.08,1.8-3.62,2.25-5.52,2.25-2.62,0-6.92-1.88-6.88-7.57,0-4.26,2.62-6.55,5.61-6.55,1.63,0,3.17.57,4.57,1.72.45.33.63.41.86.41.5,0,1.63-.86,1.63-1.84,0-.45-.09-.74-.72-1.19-.68-.53-2.17-1.1-4.21-1.1-1.76,0-4.48.65-6.88,2.33-3.03,2.09-4.57,4.79-4.57,8.02,0,4.38,3.39,8.59,9.14,8.59,2.71,0,5.74-1.8,7.73-4.17l-.77-.9Z"/>
      </g>
      <path class="cls-14" d="M192.46,186.61c4.34.65,7.87,2.54,7.87,6.51,0,2.78-1.72,4.99-4.39,6.3-2.35,1.19-4.66,1.6-7.82,1.6h-11.13v-1.15c3.84-.33,4.07-.7,4.07-3.93v-16.41c0-3.4-.41-3.68-4.07-3.97v-1.15h11.85c3.39,0,5.52.53,6.97,1.43,1.58.98,2.67,2.5,2.67,4.58,0,3.85-3.48,5.61-6.02,6.18ZM187.26,186.12c4.98,0,7.01-1.8,7.01-5.16,0-2.86-1.94-5.07-6.29-5.07-1.27,0-2.08.12-2.53.41-.36.25-.5.7-.5,2.01v7.82h2.31ZM184.95,195.86c0,2.95.77,3.68,3.98,3.68,3.53,0,6.97-1.72,6.97-6.02s-3.26-5.97-8.77-5.97h-2.17v8.31Z"/>
      <g class="cls-9">
        <path class="cls-3" d="M184.95,187.55h2.17c5.52,0,8.77,1.8,8.77,5.97s-3.44,6.02-6.97,6.02c-3.21,0-3.98-.74-3.98-3.68v-8.31ZM184.95,186.12v-7.82c0-1.31.14-1.76.5-2.01.45-.29,1.27-.41,2.53-.41,4.34,0,6.29,2.21,6.29,5.07,0,3.36-2.04,5.16-7.01,5.16h-2.31ZM198.47,180.43c0-2.09-1.09-3.6-2.67-4.58-1.45-.9-3.57-1.43-6.97-1.43h-11.85v1.15c3.66.29,4.07.57,4.07,3.97v16.41c0,3.23-.23,3.6-4.07,3.93v1.15h11.13c3.17,0,5.47-.41,7.82-1.6,2.67-1.31,4.39-3.52,4.39-6.3,0-3.97-3.53-5.85-7.87-6.51,2.53-.57,6.02-2.33,6.02-6.18Z"/>
      </g>
      <path class="cls-14" d="M221.99,200.85c-.77.37-1.49.53-1.94.53-2.89,0-4.43-1.6-4.43-4.87v-11.91h-3.12l-.18-.49,1.22-1.19h2.08v-3.44c.86-.82,2.17-1.88,3.03-2.7l.68.08c-.09,1.72-.14,4.09-.14,6.06h5.16c.41.41.27,1.31-.27,1.68h-4.88v10.48c0,3.31,1.45,3.93,2.62,3.93,1.09,0,2.13-.37,2.76-.65l.41,1.06-2.99,1.43ZM242.71,197.41c-2.89,3.27-6.06,3.97-7.51,3.97-5.52,0-8.87-4.09-8.87-8.8,0-2.78,1.09-5.36,2.94-7.16,1.9-1.92,4.39-2.99,6.74-2.99,3.94,0,6.92,3.07,6.92,6.34-.05.82-.18,1.19-.9,1.35-.9.16-6.69.53-12.08.7-.14,5.48,3.57,7.73,6.78,7.73,1.85,0,3.57-.7,5.25-2.09l.72.94ZM234.93,183.99c-2.08,0-4.12,1.76-4.75,5.07,2.53,0,5.07,0,7.73-.12.81,0,1.09-.2,1.09-.82.05-2.17-1.54-4.13-4.07-4.13ZM245.15,180.02c2.08-.82,3.53-2.05,3.53-3.44s-1.54-1.92-2.99-2.17c-.32-.04-.63-.61-.63-1.15,0-1.1.95-1.84,2.31-1.84,1.99,0,3.98,1.47,3.98,4.17,0,2.91-2.8,4.83-5.65,5.57l-.54-1.15ZM262.25,187.79c-.81-2.37-1.99-4.01-4.75-4.01-1.58,0-2.8,1.02-2.8,2.66,0,1.76,1.31,2.58,3.84,3.64,3.89,1.68,5.83,2.91,5.83,5.61,0,3.76-3.8,5.69-7.37,5.69-2.35,0-4.43-.65-5.38-1.15-.23-1.19-.63-3.44-.81-4.79l1.31-.2c.81,2.62,2.4,4.75,5.56,4.75,1.72,0,3.17-1.06,3.17-2.78,0-1.84-1.22-2.78-3.62-3.85-3.17-1.39-5.74-2.7-5.74-5.65s2.8-5.28,7.06-5.28c1.9,0,3.44.41,4.34.53.14.98.45,3.56.68,4.54l-1.31.29Z"/>
      <g class="cls-12">
        <path class="cls-3" d="M224.98,199.42l-.41-1.07c-.63.29-1.67.66-2.76.66-1.18,0-2.62-.61-2.62-3.93v-10.48h4.88c.54-.37.68-1.27.27-1.68h-5.15c0-1.96.04-4.34.14-6.06l-.68-.08c-.86.82-2.17,1.88-3.03,2.7v3.44h-2.08l-1.22,1.19.18.49h3.12v11.91c0,3.27,1.54,4.87,4.43,4.87.45,0,1.18-.17,1.94-.53l2.99-1.43Z"/>
        <path class="cls-3" d="M239,188.12c0,.61-.27.82-1.09.82-2.67.12-5.2.12-7.73.12.63-3.32,2.67-5.08,4.75-5.08,2.53,0,4.12,1.97,4.07,4.13ZM241.99,196.47c-1.67,1.39-3.39,2.09-5.25,2.09-3.21,0-6.92-2.25-6.78-7.73,5.38-.17,11.17-.53,12.08-.7.72-.16.86-.53.9-1.35,0-3.27-2.99-6.34-6.92-6.34-2.35,0-4.84,1.06-6.74,2.99-1.85,1.8-2.94,4.38-2.94,7.16,0,4.71,3.35,8.8,8.87,8.8,1.45,0,4.61-.69,7.51-3.97l-.72-.94Z"/>
        <path class="cls-3" d="M245.69,181.17c2.85-.74,5.65-2.66,5.65-5.57,0-2.7-1.99-4.17-3.98-4.17-1.36,0-2.31.74-2.31,1.84,0,.53.32,1.11.63,1.15,1.45.25,2.99.74,2.99,2.17s-1.45,2.62-3.53,3.44l.54,1.15Z"/>
        <path class="cls-3" d="M263.56,187.51c-.23-.98-.54-3.56-.68-4.54-.9-.12-2.44-.53-4.34-.53-4.25,0-7.06,2.29-7.06,5.28s2.58,4.26,5.74,5.65c2.4,1.06,3.62,2.01,3.62,3.85,0,1.72-1.45,2.78-3.17,2.78-3.17,0-4.75-2.13-5.56-4.75l-1.31.21c.18,1.35.59,3.6.81,4.79.95.49,3.03,1.15,5.38,1.15,3.57,0,7.37-1.92,7.37-5.69,0-2.7-1.94-3.93-5.83-5.61-2.53-1.07-3.84-1.88-3.84-3.64,0-1.64,1.22-2.66,2.8-2.66,2.76,0,3.94,1.64,4.75,4.01l1.31-.29Z"/>
        <rect class="cls-14" x="102.43" y="165.86" width="83.43" height="2.62"/>
        <rect class="cls-3" x="102.43" y="165.86" width="83.43" height="2.62"/>
        <rect class="cls-14" x="224.63" y="165.86" width="55.87" height="2.56"/>
        <rect class="cls-3" x="224.63" y="165.86" width="55.87" height="2.56"/>
        <ellipse class="cls-6" cx="192.43" cy="167.14" rx="125.28" ry="63.79"/>
        <ellipse class="cls-1" cx="192.43" cy="167.14" rx="132.98" ry="70.35"/>
      </g>
    </g>
  </g>
</svg>